<?xml version="1.0" encoding="UTF-8" ?>
<!DOCTYPE svg PUBLIC "-//W3C//DTD SVG 1.1//EN" "http://www.w3.org/Graphics/SVG/1.1/DTD/svg11.dtd">
<svg width="128pt" height="128pt" viewBox="0 0 128 128" version="1.1" xmlns="http://www.w3.org/2000/svg">
<path fill="#222222" d=" M 0.00 0.00 L 128.00 0.00 L 128.00 128.00 L 0.00 128.00 L 0.00 0.00 Z" />
<path fill="#eff1ed" d=" M 23.47 36.66 C 26.56 35.75 29.82 36.02 33.00 35.99 C 53.01 36.01 73.02 36.00 93.03 35.99 C 96.99 36.05 101.11 35.59 104.87 37.11 C 111.22 39.62 116.03 46.05 115.99 52.98 C 116.01 60.32 116.02 67.67 115.99 75.02 C 116.05 83.97 108.00 92.03 99.06 91.99 C 75.35 92.01 51.65 92.00 27.94 91.99 C 18.99 92.03 10.92 83.97 11.00 75.00 C 10.99 67.69 10.99 60.37 11.00 53.05 C 10.92 45.62 16.42 38.72 23.47 36.66 Z" />
<path fill="#222222" d=" M 27.08 37.08 C 51.06 36.92 75.05 37.00 99.04 37.04 C 107.25 36.85 114.68 43.83 114.91 52.06 C 115.05 60.06 115.07 68.08 114.90 76.08 C 114.61 84.23 107.22 91.10 99.10 90.95 C 75.35 91.04 51.60 91.03 27.85 90.95 C 19.75 91.07 12.39 84.24 12.10 76.11 C 11.92 68.12 11.96 60.11 12.08 52.11 C 12.27 44.19 19.16 37.29 27.08 37.08 Z" />
<path fill="#eff1ed" d=" M 29.76 62.07 C 25.84 58.07 27.08 49.58 33.09 48.30 C 37.70 47.68 42.42 47.98 47.06 48.18 C 46.94 48.79 46.70 50.00 46.58 50.61 C 42.39 50.88 38.15 50.37 33.99 51.07 C 29.88 51.96 29.04 58.32 32.54 60.44 C 36.86 62.70 42.58 61.62 46.21 65.31 C 49.32 69.95 48.02 78.37 41.89 79.78 C 37.28 80.24 32.59 80.03 27.96 79.89 C 27.92 79.41 27.85 78.46 27.82 77.98 C 32.35 76.02 37.93 78.64 42.45 76.36 C 45.48 74.24 45.25 70.00 44.10 66.91 C 39.64 64.35 33.94 65.19 29.76 62.07 Z" />
<path fill="#eff1ed" d=" M 59.15 48.16 C 64.08 47.96 70.26 46.87 73.81 51.24 C 77.10 56.20 75.56 62.46 75.92 68.04 C 76.27 72.19 74.77 76.47 71.21 78.83 C 73.01 80.58 75.21 82.17 75.92 84.71 C 72.31 85.99 70.56 81.83 68.12 79.99 C 63.78 79.85 58.67 80.99 55.22 77.61 C 50.36 73.09 52.19 65.85 51.84 59.97 C 51.52 55.03 53.65 49.07 59.15 48.16 Z" />
<path fill="#eff1ed" d=" M 79.86 50.99 C 79.84 49.72 80.19 47.68 81.94 48.01 C 87.31 47.98 92.68 47.94 98.05 48.04 C 99.95 47.34 99.82 51.16 97.98 50.63 C 92.96 50.85 87.93 50.63 82.91 50.71 C 82.91 54.46 82.91 58.21 82.91 61.97 C 87.37 62.07 91.83 61.87 96.29 62.06 C 96.42 62.54 96.68 63.50 96.81 63.98 C 92.67 66.02 87.50 64.40 82.94 64.91 C 82.84 69.94 83.04 74.98 82.78 80.01 C 81.39 79.90 79.43 80.16 79.87 78.08 C 79.81 69.05 79.84 60.02 79.86 50.99 Z" />
<path fill="#222222" d=" M 58.39 51.54 C 62.87 50.16 70.08 49.50 72.28 54.81 C 73.41 59.45 72.63 64.32 72.85 69.06 C 73.17 72.66 70.88 76.71 67.05 77.14 C 63.64 77.40 59.45 77.93 56.92 75.07 C 54.05 71.75 55.13 67.05 54.89 63.04 C 54.97 59.08 54.35 53.84 58.39 51.54 Z" />
</svg>
